<svg class="back"
				 xmlns="http://www.w3.org/2000/svg"
				 version="1.1"
				 xmlns:xlink="http://www.w3.org/1999/xlink"
				 xmlns:svgjs="http://svgjs.dev/svgjs"
				 width="1440"
				 height="560"
				 preserveAspectRatio="none"
				 viewBox="0 0 1440 560">
				<g mask='url("#SvgjsMask1029")' fill="none">
					<rect width="1440"
						  height="560"
						  x="0"
						  y="0"
						  fill="rgba(46, 64, 158, 1)"></rect>
					<path id="f1"
						  d="M0,472.92C86.798,467.011,151.402,392.835,212.934,331.332C264.545,279.746,283.491,208.492,324.762,148.314C377.285,71.729,494.051,22.478,488.319,-70.21C482.704,-161.004,365.22,-196.616,299.539,-259.552C241,-315.645,203.131,-405.745,123.312,-419.964C43.641,-434.156,-19.657,-354.152,-96.95,-330.181C-172.567,-306.73,-260.351,-327.622,-324.415,-281.107C-394.445,-230.261,-456.792,-152.674,-460.511,-66.212C-464.194,19.419,-383.569,81.122,-343.249,156.756C-305.965,226.694,-290.713,307.956,-232.419,361.651C-167.936,421.046,-87.467,478.875,0,472.92"
						  fill="#25337e"></path>
					<path id="f2"
						  d="M1440 942.04C1512.83 942.0350000000001 1581.188 914.2660000000001 1644.161 877.6800000000001 1709.454 839.746 1791.981 801.896 1808.173 728.139 1824.63 653.179 1736.27 594.894 1722.8310000000001 519.335 1710.108 447.802 1774.527 365.717 1733.099 306.029 1692.422 247.423 1601.683 262.36 1532.471 245.07100000000003 1466.513 228.594 1398.591 179.622 1336.324 206.913 1273.566 234.41899999999998 1274.73 326.127 1229.7 377.774 1184.453 429.66999999999996 1085.196 439.437 1074.316 507.423 1063.481 575.126 1154.246 615.135 1181.657 677.981 1209.805 742.516 1186.584 827.3820000000001 1235.821 877.7080000000001 1286.755 929.769 1367.167 942.0450000000001 1440 942.04"
						  fill="#374dbe"></path>
				</g>
				<g mask='url("#SvgjsMask1031")' fill="none" style="visibility: hidden">
					<rect width="1440"
						  height="560"
						  x="0"
						  y="0"
						  fill="rgba(46, 64, 158, 1)"></rect>
					<path id="ff1"
						  d="M0,299.355C56.681,287.659,113.044,282.47,164.469,255.919C220.069,227.213,276.201,194.593,307.665,140.506C340.639,83.823,358.012,14.413,341.947,-49.165C326.375,-110.793,263.43,-144.194,223.276,-193.47C181.518,-244.714,165.202,-328.127,101.188,-344.616C36.901,-361.175,-16.741,-292.495,-79.725,-271.518C-139.603,-251.575,-208.401,-262.054,-259.191,-224.59C-315.636,-182.955,-376.67,-123.997,-374.774,-53.884C-372.849,17.301,-277.174,48.35,-250.028,114.184C-221.132,184.261,-275.673,289.059,-214.759,334.172C-155.276,378.225,-72.493,314.314,0,299.355"
						  fill="#25337e"></path>
					<path id="ff2"
						  d="M1440 1097.885C1545.709 1081.775 1665.74 1107.938 1749.094 1040.96 1831.128 975.0419999999999 1822.7640000000001 850.4929999999999 1866.816 754.92 1911.079 658.889 2021.396 583.2139999999999 2008.449 478.269 1995.5149999999999 373.427 1862.605 332.50800000000004 1803.871 244.704 1732.973 138.716 1748.167-39.238000000000056 1630.083-87.36400000000003 1515.007-134.264 1399.198-16.471000000000004 1285.372 33.38599999999997 1186.699 76.60500000000002 1072.229 99.13799999999998 1007.573 185.3 944.271 269.658 968.489 386.126 943.745 488.649 915.664 604.995 830.847 710.627 852.367 828.363 875.678 955.898 945.941 1091.3519999999999 1063.785 1145.402 1181.0529999999999 1199.188 1312.459 1117.3220000000001 1440 1097.885"
						  fill="#374dbe"></path>
				</g>
				<defs>
					<mask id="SvgjsMask1029">
						<rect width="1440" height="560" fill="#ffffff"></rect>
					</mask>
				</defs>
			</svg>